<svg width="20" height="18" viewBox="0 0 20 18" fill="none" xmlns="http://www.w3.org/2000/svg">
<path d="M9.75 1.62651C12.2349 1.62651 12.5738 1.62651 13.5904 1.62651C14.494 1.62651 14.9458 1.84337 15.2846 1.95181C15.7364 2.16868 16.0753 2.27711 16.4142 2.60241C16.753 2.92771 16.9789 3.25301 17.0919 3.68675C17.2048 4.01205 17.3178 4.44578 17.4307 5.31325C17.4307 6.28916 17.4307 6.50602 17.4307 9C17.4307 11.494 17.4307 11.7108 17.4307 12.6867C17.4307 13.5542 17.2048 13.988 17.0919 14.3133C16.866 14.747 16.753 15.0723 16.4142 15.3976C16.0753 15.7229 15.7364 15.9398 15.2846 16.0482C14.9458 16.1566 14.494 16.2651 13.5904 16.3735C12.5738 16.3735 12.3479 16.3735 9.75 16.3735C7.15211 16.3735 6.92621 16.3735 5.90964 16.3735C5.00602 16.3735 4.55422 16.1566 4.21536 16.0482C3.76355 15.8313 3.4247 15.7229 3.08584 15.3976C2.74699 15.0723 2.52108 14.747 2.40813 14.3133C2.29518 13.988 2.18223 13.5542 2.06928 12.6867C2.06928 11.7108 2.06928 11.494 2.06928 9C2.06928 6.50602 2.06928 6.28916 2.06928 5.31325C2.06928 4.44578 2.29518 4.01205 2.40813 3.68675C2.63404 3.25301 2.74699 2.92771 3.08584 2.60241C3.4247 2.27711 3.76355 2.06024 4.21536 1.95181C4.55422 1.84337 5.00602 1.73494 5.90964 1.62651C6.92621 1.62651 7.26506 1.62651 9.75 1.62651ZM9.75 0C7.15211 0 6.92621 0 5.90964 0C4.89307 0 4.21536 0.216868 3.6506 0.433736C3.08584 0.650603 2.52109 0.975904 1.95633 1.51807C1.39157 2.06024 1.16566 2.49398 0.826808 3.14458C0.600904 3.68675 0.487952 4.33735 0.375 5.31325C0.375 6.28916 0.375 6.61446 0.375 9C0.375 11.494 0.375 11.7108 0.375 12.6867C0.375 13.6627 0.600904 14.3133 0.826808 14.8554C1.05271 15.3976 1.39157 15.9398 1.95633 16.4819C2.52109 17.0241 2.97289 17.241 3.6506 17.5663C4.21536 17.7831 4.89307 17.8916 5.90964 18C6.92621 18 7.26506 18 9.75 18C12.2349 18 12.5738 18 13.5904 18C14.6069 18 15.2846 17.7831 15.8494 17.5663C16.4142 17.3494 16.9789 17.0241 17.5437 16.4819C18.1084 15.9398 18.3343 15.506 18.6732 14.8554C18.8991 14.3133 19.012 13.6627 19.125 12.6867C19.125 11.7108 19.125 11.3855 19.125 9C19.125 6.61446 19.125 6.28916 19.125 5.31325C19.125 4.33735 18.8991 3.68675 18.6732 3.14458C18.4473 2.60241 18.1084 2.06024 17.5437 1.51807C16.9789 0.975904 16.5271 0.759037 15.8494 0.433736C15.2846 0.216868 14.6069 0.108434 13.5904 0C12.5738 0 12.3479 0 9.75 0Z" fill="black"/>
<path d="M9.75 4.33735C7.03916 4.33735 4.89307 6.39759 4.89307 9C4.89307 11.6024 7.03916 13.6627 9.75 13.6627C12.4608 13.6627 14.6069 11.6024 14.6069 9C14.6069 6.39759 12.4608 4.33735 9.75 4.33735ZM9.75 12.0361C8.05572 12.0361 6.58735 10.7349 6.58735 9C6.58735 7.3735 7.94277 5.96386 9.75 5.96386C11.4443 5.96386 12.9127 7.26506 12.9127 9C12.9127 10.6265 11.4443 12.0361 9.75 12.0361Z" fill="black"/>
<path d="M14.7199 5.31325C15.3437 5.31325 15.8494 4.82778 15.8494 4.22892C15.8494 3.63005 15.3437 3.14458 14.7199 3.14458C14.0961 3.14458 13.5904 3.63005 13.5904 4.22892C13.5904 4.82778 14.0961 5.31325 14.7199 5.31325Z" fill="black"/>
</svg>
