<svg width="22" height="14" viewBox="0 0 22 14" fill="none" xmlns="http://www.w3.org/2000/svg">
<path d="M12.1711 13.3C5.12434 13.3 1.10497 8.57022 0.9375 0.699951H4.46733C4.58327 6.47653 7.18555 8.92337 9.24676 9.42788V0.699951H12.5705V5.68193C14.6059 5.46752 16.7444 3.19725 17.4658 0.699951H20.7895C20.5177 1.99512 19.9758 3.22144 19.1978 4.3022C18.4197 5.38297 17.4222 6.29492 16.2678 6.98103C17.5564 7.60795 18.6947 8.4953 19.6074 9.58452C20.52 10.6737 21.1864 11.9401 21.5625 13.3H17.9038C17.5662 12.1188 16.8801 11.0615 15.9313 10.2605C14.9825 9.45951 13.8134 8.9505 12.5705 8.79725V13.3H12.1711V13.3Z" fill="black"/>
</svg>
