<svg width="30" height="30" viewBox="0 0 30 30" fill="none" xmlns="http://www.w3.org/2000/svg">
<path fill-rule="evenodd" clip-rule="evenodd" d="M20.02 3.72679C17.5907 2.64433 14.8765 2.37617 12.2823 2.9623C9.6881 3.54842 7.35286 4.95743 5.62487 6.97917C3.89688 9.00092 2.86872 11.5271 2.69373 14.1809C2.51874 16.8347 3.20629 19.474 4.65384 21.7052C6.1014 23.9363 8.2314 25.6397 10.7262 26.5614C13.2209 27.4831 15.9468 27.5737 18.4973 26.8196C21.0477 26.0655 23.2861 24.5072 24.8785 22.377C26.4708 20.247 27.332 17.6594 27.3337 15C27.3337 14.9998 27.3337 15.0002 27.3337 15V13.7734C27.3337 13.2211 27.7814 12.7734 28.3337 12.7734C28.886 12.7734 29.3337 13.2211 29.3337 13.7734V15C29.3319 18.0909 28.331 21.099 26.4804 23.5745C24.6297 26.0501 22.0284 27.8611 19.0643 28.7375C16.1003 29.6139 12.9324 29.5087 10.0331 28.4375C7.13374 27.3663 4.65833 25.3867 2.97604 22.7937C1.29374 20.2008 0.494693 17.1335 0.698062 14.0493C0.901432 10.9651 2.09632 8.02933 4.10453 5.67973C6.11273 3.33014 8.82665 1.69264 11.8415 1.01147C14.8564 0.330299 18.0107 0.641945 20.834 1.89993C21.3385 2.12471 21.5652 2.71588 21.3404 3.22036C21.1156 3.72483 20.5245 3.95157 20.02 3.72679Z" fill="white"/>
<path fill-rule="evenodd" clip-rule="evenodd" d="M29.0401 3.62591C29.4308 4.01624 29.4311 4.64941 29.0408 5.04013L15.7075 18.3868C15.52 18.5745 15.2656 18.68 15.0002 18.68C14.7349 18.6801 14.4805 18.5747 14.2929 18.3871L10.2929 14.3871C9.90237 13.9966 9.90237 13.3635 10.2929 12.9729C10.6834 12.5824 11.3166 12.5824 11.7071 12.9729L14.9996 16.2655L27.6259 3.62662C28.0162 3.2359 28.6494 3.23558 29.0401 3.62591Z" fill="white"/>
</svg>
