<svg width="26" height="28" viewBox="0 0 26 28" fill="none" xmlns="http://www.w3.org/2000/svg">
<g filter="url(#filter0_d_121_6161)">
<path fill-rule="evenodd" clip-rule="evenodd" d="M21 8.33325C21.5523 8.33325 22 8.78097 22 9.33325V22.6666C22 23.2189 21.5523 23.6666 21 23.6666C20.4477 23.6666 20 23.2189 20 22.6666V9.33325C20 8.78097 20.4477 8.33325 21 8.33325Z" fill="white"/>
</g>
<g filter="url(#filter1_d_121_6161)">
<path fill-rule="evenodd" clip-rule="evenodd" d="M13 0.333252C13.5523 0.333252 14 0.780967 14 1.33325V22.6666C14 23.2189 13.5523 23.6666 13 23.6666C12.4477 23.6666 12 23.2189 12 22.6666V1.33325C12 0.780967 12.4477 0.333252 13 0.333252Z" fill="white"/>
</g>
<g filter="url(#filter2_d_121_6161)">
<path fill-rule="evenodd" clip-rule="evenodd" d="M5 13.6667C5.55228 13.6667 6 14.1145 6 14.6667V22.6667C6 23.219 5.55228 23.6667 5 23.6667C4.44772 23.6667 4 23.219 4 22.6667V14.6667C4 14.1145 4.44772 13.6667 5 13.6667Z" fill="white"/>
</g>
<defs>
<filter id="filter0_d_121_6161" x="16" y="8.33325" width="10" height="23.3333" filterUnits="userSpaceOnUse" color-interpolation-filters="sRGB">
<feFlood flood-opacity="0" result="BackgroundImageFix"/>
<feColorMatrix in="SourceAlpha" type="matrix" values="0 0 0 0 0 0 0 0 0 0 0 0 0 0 0 0 0 0 127 0" result="hardAlpha"/>
<feOffset dy="4"/>
<feGaussianBlur stdDeviation="2"/>
<feComposite in2="hardAlpha" operator="out"/>
<feColorMatrix type="matrix" values="0 0 0 0 0 0 0 0 0 0 0 0 0 0 0 0 0 0 0.25 0"/>
<feBlend mode="normal" in2="BackgroundImageFix" result="effect1_dropShadow_121_6161"/>
<feBlend mode="normal" in="SourceGraphic" in2="effect1_dropShadow_121_6161" result="shape"/>
</filter>
<filter id="filter1_d_121_6161" x="8" y="0.333252" width="10" height="31.3333" filterUnits="userSpaceOnUse" color-interpolation-filters="sRGB">
<feFlood flood-opacity="0" result="BackgroundImageFix"/>
<feColorMatrix in="SourceAlpha" type="matrix" values="0 0 0 0 0 0 0 0 0 0 0 0 0 0 0 0 0 0 127 0" result="hardAlpha"/>
<feOffset dy="4"/>
<feGaussianBlur stdDeviation="2"/>
<feComposite in2="hardAlpha" operator="out"/>
<feColorMatrix type="matrix" values="0 0 0 0 0 0 0 0 0 0 0 0 0 0 0 0 0 0 0.25 0"/>
<feBlend mode="normal" in2="BackgroundImageFix" result="effect1_dropShadow_121_6161"/>
<feBlend mode="normal" in="SourceGraphic" in2="effect1_dropShadow_121_6161" result="shape"/>
</filter>
<filter id="filter2_d_121_6161" x="0" y="13.6667" width="10" height="18" filterUnits="userSpaceOnUse" color-interpolation-filters="sRGB">
<feFlood flood-opacity="0" result="BackgroundImageFix"/>
<feColorMatrix in="SourceAlpha" type="matrix" values="0 0 0 0 0 0 0 0 0 0 0 0 0 0 0 0 0 0 127 0" result="hardAlpha"/>
<feOffset dy="4"/>
<feGaussianBlur stdDeviation="2"/>
<feComposite in2="hardAlpha" operator="out"/>
<feColorMatrix type="matrix" values="0 0 0 0 0 0 0 0 0 0 0 0 0 0 0 0 0 0 0.25 0"/>
<feBlend mode="normal" in2="BackgroundImageFix" result="effect1_dropShadow_121_6161"/>
<feBlend mode="normal" in="SourceGraphic" in2="effect1_dropShadow_121_6161" result="shape"/>
</filter>
</defs>
</svg>
