<svg width="28" height="29" viewBox="0 0 28 29" fill="none" xmlns="http://www.w3.org/2000/svg">
<path fill-rule="evenodd" clip-rule="evenodd" d="M9 27C9 25.8954 9.89543 25 11 25C12.1046 25 13 25.8954 13 27C13 28.1046 12.1046 29 11 29C9.89543 29 9 28.1046 9 27Z" fill="white"/>
<path fill-rule="evenodd" clip-rule="evenodd" d="M21 27C21 25.8954 21.8954 25 23 25C24.1046 25 25 25.8954 25 27C25 28.1046 24.1046 29 23 29C21.8954 29 21 28.1046 21 27Z" fill="white"/>
<path fill-rule="evenodd" clip-rule="evenodd" d="M0 1C0 0.447715 0.447715 0 1 0H5.72727C6.20876 0 6.62189 0.34312 6.71028 0.816427L7.74051 6.33318H27C27.2959 6.33318 27.5765 6.46419 27.7665 6.69099C27.9565 6.91778 28.0364 7.21707 27.9845 7.50836L26.0924 18.1425C25.9446 18.9397 25.5376 19.6697 24.9261 20.1972C24.3158 20.7238 23.5413 21.0133 22.7361 20.9995H11.2676C10.4624 21.0133 9.6878 20.7238 9.07749 20.1972C8.46617 19.6698 8.0592 18.94 7.91138 18.143C7.91135 18.1428 7.91141 18.1431 7.91138 18.143L5.93552 7.56254C5.92861 7.53311 5.92301 7.50318 5.91876 7.47281L4.89673 2H1C0.447715 2 0 1.55228 0 1ZM8.11401 8.33318L9.8778 17.778C9.94619 18.1471 10.1312 18.4648 10.384 18.6829C10.6351 18.8996 10.9376 19.0059 11.2376 18.9997L11.2582 18.9995H22.7455L22.766 18.9997C23.0661 19.0059 23.3686 18.8996 23.6197 18.6829C23.8717 18.4654 24.0564 18.1488 24.1253 17.7811C24.1255 17.7801 24.1256 17.7791 24.1258 17.778L25.8064 8.33318H8.11401Z" fill="white"/>
</svg>
