<svg width="32" height="32" viewBox="0 0 32 32" fill="none" xmlns="http://www.w3.org/2000/svg">
<path fill-rule="evenodd" clip-rule="evenodd" d="M16 30C23.732 30 30 23.732 30 16C30 8.26801 23.732 2 16 2C8.26801 2 2 8.26801 2 16C2 23.732 8.26801 30 16 30ZM16 32C24.8366 32 32 24.8366 32 16C32 7.16344 24.8366 0 16 0C7.16344 0 0 7.16344 0 16C0 24.8366 7.16344 32 16 32Z" fill="white"/>
<path fill-rule="evenodd" clip-rule="evenodd" d="M16.0004 16.8446C18.0377 16.8446 19.6893 15.193 19.6893 13.1557C19.6893 11.1184 18.0377 9.4668 16.0004 9.4668C13.9631 9.4668 12.3115 11.1184 12.3115 13.1557C12.3115 15.193 13.9631 16.8446 16.0004 16.8446ZM16.0004 18.8446C19.1423 18.8446 21.6893 16.2976 21.6893 13.1557C21.6893 10.0138 19.1423 7.4668 16.0004 7.4668C12.8585 7.4668 10.3115 10.0138 10.3115 13.1557C10.3115 16.2976 12.8585 18.8446 16.0004 18.8446Z" fill="white"/>
<path fill-rule="evenodd" clip-rule="evenodd" d="M16.4371 18.8066C11.8255 18.8066 7.86512 21.9278 6.43003 26.3347L4.52832 25.7154C6.20687 20.5609 10.8824 16.8066 16.4371 16.8066C21.9918 16.8066 26.6673 20.5609 28.3459 25.7154L26.4442 26.3347C25.0091 21.9278 21.0486 18.8066 16.4371 18.8066Z" fill="white"/>
</svg>
